<svg width="32" height="128" viewBox="0 0 32 128" fill="none" xmlns="http://www.w3.org/2000/svg">
<path d="M0 0H28C30.2091 0 32 1.79086 32 4V124C32 126.209 30.2091 128 28 128H0V0Z" fill="#0057B8"/>
<path d="M20 109.676V111.623H13.961V114.67H12.465V106.618H13.961V109.676H20ZM20 96.7291V98.6761H16.898V103.109H20V105.056H12.465V103.109H15.402V98.6761H12.465V96.7291H20ZM20 87.7262V94.2602H12.465V87.9132H13.961V92.3132H15.424V88.2432H16.876V92.3132H18.493V87.7262H20ZM17.943 73.7419C18.68 73.7419 19.175 74.0279 19.494 74.5999C19.978 75.4249 20 76.3599 20 78.1969V81.5629H12.465V78.1749C12.465 76.6459 12.487 75.7329 12.949 74.9409C13.279 74.3909 13.774 74.1489 14.445 74.1489C15.237 74.1489 15.743 74.4789 16.117 75.3259H16.161C16.392 74.3579 16.887 73.7419 17.943 73.7419ZM17.756 75.7109C17.008 75.7109 16.909 76.3489 16.909 77.5699V79.6159H18.614V77.5479C18.614 76.1949 18.471 75.7109 17.756 75.7109ZM14.698 76.0959C13.939 76.0959 13.84 76.7339 13.84 77.9549V79.6159H15.589V77.9439C15.589 76.6019 15.424 76.0959 14.698 76.0959ZM20 69.7546V71.7016H12.465L12.465 69.7546H20ZM19.659 59.5976C19.934 60.9506 20.154 62.4136 20.154 63.8766C20.154 64.9546 20 65.9996 19.373 66.7696C18.625 67.6716 17.47 67.9356 16.227 67.9356C15.16 67.9356 13.84 67.6276 13.048 66.4506C12.432 65.5266 12.311 64.3386 12.311 63.0406C12.311 62.0396 12.366 61.0386 12.443 59.9166H13.983C13.917 60.8516 13.862 62.0506 13.862 62.9196C13.862 65.0426 14.5 65.9446 16.271 65.9446C17.91 65.9446 18.669 65.3286 18.669 63.6456C18.669 62.9416 18.603 62.1716 18.493 61.4126H17.184V63.6566H15.776L15.776 59.5976H19.659ZM17.943 45.49C18.68 45.49 19.175 45.776 19.494 46.348C19.978 47.173 20 48.108 20 49.945V53.311H12.465V49.923C12.465 48.394 12.487 47.481 12.949 46.689C13.279 46.139 13.774 45.897 14.445 45.897C15.237 45.897 15.743 46.227 16.117 47.074H16.161C16.392 46.106 16.887 45.49 17.943 45.49ZM17.756 47.459C17.008 47.459 16.909 48.097 16.909 49.318V51.364H18.614V49.296C18.614 47.943 18.471 47.459 17.756 47.459ZM14.698 47.844C13.939 47.844 13.84 48.482 13.84 49.703V51.364H15.589V49.692C15.589 48.35 15.424 47.844 14.698 47.844ZM16.227 34.1656C17.569 34.1656 18.691 34.5286 19.384 35.5516C19.989 36.4646 20.154 37.6416 20.154 39.1266C20.154 40.6336 19.989 41.7996 19.373 42.7126C18.691 43.7466 17.569 44.0986 16.227 44.0986C14.896 44.0986 13.752 43.7466 13.07 42.7126C12.465 41.7996 12.311 40.6226 12.311 39.1376C12.311 37.6306 12.476 36.4646 13.07 35.5516C13.763 34.5286 14.896 34.1656 16.227 34.1656ZM16.282 36.1566C14.555 36.1566 13.829 37.0696 13.829 39.1266C13.829 41.1726 14.401 42.1076 16.172 42.1076C17.899 42.1076 18.636 41.1946 18.636 39.1376C18.636 37.1026 18.053 36.1566 16.282 36.1566ZM16.227 22.8541C17.569 22.8541 18.691 23.2171 19.384 24.2401C19.989 25.1531 20.154 26.3301 20.154 27.8151C20.154 29.3221 19.989 30.4881 19.373 31.4011C18.691 32.4351 17.569 32.7871 16.227 32.7871C14.896 32.7871 13.752 32.4351 13.07 31.4011C12.465 30.4881 12.311 29.3111 12.311 27.8261C12.311 26.3191 12.476 25.1531 13.07 24.2401C13.763 23.2171 14.896 22.8541 16.227 22.8541ZM16.282 24.8451C14.555 24.8451 13.829 25.7581 13.829 27.8151C13.829 29.8611 14.401 30.7961 16.172 30.7961C17.899 30.7961 18.636 29.8831 18.636 27.8261C18.636 25.7911 18.053 24.8451 16.282 24.8451ZM20 12.7914V15.2004L16.755 18.0714L17.668 19.0944H20V21.0414H12.465L12.465 19.0944H15.633L12.465 15.6954V13.1324L15.666 16.6414L20 12.7914Z" fill="white"/>
</svg>
