<svg width="10" height="87" viewBox="0 0 10 87" fill="none" xmlns="http://www.w3.org/2000/svg">
<path d="M5.8418 80.6309L6.375 78.9492C7.3125 79.207 8.00977 79.6367 8.4668 80.2383C8.91992 80.8359 9.14648 81.5957 9.14648 82.5176C9.14648 83.6582 8.75781 84.5957 7.98047 85.3301C7.19922 86.0645 6.13281 86.4316 4.78125 86.4316C3.35156 86.4316 2.24219 86.0625 1.45312 85.3242C0.660156 84.5859 0.263672 83.6152 0.263672 82.4121C0.263672 81.3613 0.574219 80.5078 1.19531 79.8516C1.5625 79.4609 2.08984 79.168 2.77734 78.9727L3.1875 80.6895C2.74219 80.791 2.39062 81.0039 2.13281 81.3281C1.875 81.6484 1.74609 82.0391 1.74609 82.5C1.74609 83.1367 1.97461 83.6543 2.43164 84.0527C2.88867 84.4473 3.62891 84.6445 4.65234 84.6445C5.73828 84.6445 6.51172 84.4492 6.97266 84.0586C7.43359 83.668 7.66406 83.1602 7.66406 82.5352C7.66406 82.0742 7.51758 81.6777 7.22461 81.3457C6.93164 81.0137 6.4707 80.7754 5.8418 80.6309ZM4.75781 76.8066C3.88281 76.8066 3.14844 76.6758 2.55469 76.4141C2.11719 76.2188 1.72461 75.9531 1.37695 75.6172C1.0293 75.2773 0.771484 74.9062 0.603516 74.5039C0.376953 73.9688 0.263672 73.3516 0.263672 72.6523C0.263672 71.3867 0.65625 70.375 1.44141 69.6172C2.22656 68.8555 3.31836 68.4746 4.7168 68.4746C6.10352 68.4746 7.18945 68.8516 7.97461 69.6055C8.75586 70.3594 9.14648 71.3672 9.14648 72.6289C9.14648 73.9062 8.75781 74.9219 7.98047 75.6758C7.19922 76.4297 6.125 76.8066 4.75781 76.8066ZM4.69922 75.0195C5.67188 75.0195 6.41016 74.7949 6.91406 74.3457C7.41406 73.8965 7.66406 73.3262 7.66406 72.6348C7.66406 71.9434 7.41602 71.377 6.91992 70.9355C6.41992 70.4902 5.67188 70.2676 4.67578 70.2676C3.69141 70.2676 2.95703 70.4844 2.47266 70.918C1.98828 71.3477 1.74609 71.9199 1.74609 72.6348C1.74609 73.3496 1.99219 73.9258 2.48438 74.3633C2.97266 74.8008 3.71094 75.0195 4.69922 75.0195ZM9 66.0977H0.410156V64.4102L6.14648 60.8945H0.410156V59.2832H9V61.0234L3.39844 64.4863H9V66.0977ZM9 54.5098H1.86328V57.0586H0.410156V50.2324H1.86328V52.7754H9V54.5098ZM9 41.252V43.1387L7.04883 43.8887V47.3223L9 48.0312V49.8711L0.410156 46.5254V44.6914L9 41.252ZM5.60156 44.4453L2.41406 45.6289L5.60156 46.7891V44.4453ZM5.8418 33.8301L6.375 32.1484C7.3125 32.4062 8.00977 32.8359 8.4668 33.4375C8.91992 34.0352 9.14648 34.7949 9.14648 35.7168C9.14648 36.8574 8.75781 37.7949 7.98047 38.5293C7.19922 39.2637 6.13281 39.6309 4.78125 39.6309C3.35156 39.6309 2.24219 39.2617 1.45313 38.5234C0.660156 37.7852 0.263672 36.8145 0.263672 35.6113C0.263672 34.5605 0.574219 33.707 1.19531 33.0508C1.5625 32.6602 2.08984 32.3672 2.77734 32.1719L3.1875 33.8887C2.74219 33.9902 2.39063 34.2031 2.13281 34.5273C1.875 34.8477 1.74609 35.2383 1.74609 35.6992C1.74609 36.3359 1.97461 36.8535 2.43164 37.252C2.88867 37.6465 3.62891 37.8438 4.65234 37.8438C5.73828 37.8438 6.51172 37.6484 6.97266 37.2578C7.43359 36.8672 7.66406 36.3594 7.66406 35.7344C7.66406 35.2734 7.51758 34.877 7.22461 34.5449C6.93164 34.2129 6.4707 33.9746 5.8418 33.8301ZM9 27.7207H1.86328V30.2695H0.410156V23.4434H1.86328V25.9863H9V27.7207ZM0.410156 16.9902V15.2559H5.0625C5.80078 15.2559 6.2793 15.2344 6.49805 15.1914C6.84961 15.1172 7.13281 14.9414 7.34766 14.6641C7.55859 14.3828 7.66406 14 7.66406 13.5156C7.66406 13.0234 7.56445 12.6523 7.36523 12.4023C7.16211 12.1523 6.91406 12.002 6.62109 11.9512C6.32813 11.9004 5.8418 11.875 5.16211 11.875H0.410156V10.1406H4.92188C5.95313 10.1406 6.68164 10.1875 7.10742 10.2812C7.5332 10.375 7.89258 10.5488 8.18555 10.8027C8.47852 11.0527 8.71289 11.3887 8.88867 11.8105C9.06055 12.2324 9.14648 12.7832 9.14648 13.4629C9.14648 14.2832 9.05273 14.9062 8.86523 15.332C8.67383 15.7539 8.42773 16.0879 8.12695 16.334C7.82227 16.5801 7.50391 16.7422 7.17188 16.8203C6.67969 16.9336 5.95313 16.9902 4.99219 16.9902H0.410156ZM6.20508 7.74609L6.04102 6.05859C6.60742 5.95703 7.02344 5.75195 7.28906 5.44336C7.55469 5.13086 7.6875 4.71094 7.6875 4.18359C7.6875 3.625 7.57031 3.20508 7.33594 2.92383C7.09766 2.63867 6.82031 2.49609 6.50391 2.49609C6.30078 2.49609 6.12891 2.55664 5.98828 2.67773C5.84375 2.79492 5.71875 3.00195 5.61328 3.29883C5.54297 3.50195 5.41797 3.96484 5.23828 4.6875C5.00781 5.61719 4.72461 6.26953 4.38867 6.64453C3.91602 7.17188 3.33984 7.43555 2.66016 7.43555C2.22266 7.43555 1.81445 7.3125 1.43555 7.06641C1.05273 6.81641 0.761719 6.45898 0.5625 5.99414C0.363281 5.52539 0.263672 4.96094 0.263672 4.30078C0.263672 3.22266 0.5 2.41211 0.972656 1.86914C1.44531 1.32227 2.07617 1.03516 2.86523 1.00781L2.94141 2.74219C2.5 2.81641 2.18359 2.97656 1.99219 3.22266C1.79688 3.46484 1.69922 3.83008 1.69922 4.31836C1.69922 4.82227 1.80273 5.2168 2.00977 5.50195C2.14258 5.68555 2.32031 5.77734 2.54297 5.77734C2.74609 5.77734 2.91992 5.69141 3.06445 5.51953C3.24805 5.30078 3.43945 4.76953 3.63867 3.92578C3.83789 3.08203 4.04492 2.45898 4.25977 2.05664C4.4707 1.65039 4.76172 1.33398 5.13281 1.10742C5.5 0.876953 5.95508 0.761719 6.49805 0.761719C6.99023 0.761719 7.45117 0.898438 7.88086 1.17188C8.31055 1.44531 8.63086 1.83203 8.8418 2.33203C9.04883 2.83203 9.15234 3.45508 9.15234 4.20117C9.15234 5.28711 8.90234 6.12109 8.40234 6.70312C7.89844 7.28516 7.16602 7.63281 6.20508 7.74609Z" fill="white"/>
</svg>