<svg width="24" height="24" viewBox="0 0 24 24" fill="none" xmlns="http://www.w3.org/2000/svg">
<path d="M23.0156 4.03125L13.0312 0.234375C12.7031 0.09375 12.3281 0 12 0C11.625 0 11.25 0.09375 10.9219 0.234375L0.9375 4.03125C0.375 4.26562 0 4.82812 0 5.4375V18.6094C0 19.2188 0.375 19.7812 0.9375 20.0156L10.9219 23.8125C11.25 23.9531 11.625 24 12 24C12.3281 24 12.7031 23.9531 13.0312 23.8125L23.0156 20.0156C23.5781 19.7812 24 19.2188 24 18.6094V5.4375C24 4.82812 23.5781 4.26562 23.0156 4.03125ZM11.7188 2.29688C11.8125 2.29688 11.9062 2.25 12 2.25C12.0469 2.25 12.1406 2.29688 12.2344 2.29688L21.375 5.8125L12 9.32812L2.57812 5.8125L11.7188 2.29688ZM2.25 8.0625L10.875 11.2969V21.375L2.25 18.0938V8.0625ZM13.125 21.375V11.2969L21.75 8.0625V18.0938L13.125 21.375Z" fill="white"/>
</svg>
