<svg width="103" height="24" viewBox="0 0 155 42" fill="none" xmlns="http://www.w3.org/2000/svg" class="focus:outline-none"><path fill-rule="evenodd" clip-rule="evenodd" d="M110.6 31.813C108.967 37.5138 113.042 41.9995 118.94 41.9995L138.14 41.9987C141.835 41.9987 146.401 38.4526 147.472 34.9006L149.361 28.3543H137.789L137.17 30.2462C136.826 31.3868 136.042 31.9285 134.722 31.9304H125.064C123.5 31.9304 123.046 31.0294 123.374 29.8285L128.371 12.4385C128.763 11.0576 129.508 10.0368 131.073 10.0368H141.04C142.364 10.0368 142.833 10.5781 142.506 11.7187L141.783 14.3455H153.352L154.102 11.7168C155.875 5.88404 151.498 0 145.387 0H127.562C122.907 0 118.815 3.07754 117.535 7.54298L110.6 31.813ZM107.435 27.4647C109.207 21.632 104.83 15.7417 98.7196 15.7417L98.2311 15.7421H87.0457C85.5002 15.7172 85.1087 14.7236 85.4452 13.627L85.8683 12.1474C86.2199 11.0375 87.029 10.014 88.4478 10.0435H109.618L114.212 0.000114441H84.6678C79.2697 0.24316 75.7049 4.02029 74.7594 8.2839L72.6442 15.571L72.636 15.6009C71.0039 21.3022 75.0783 25.7879 80.9758 25.7879L81.4012 25.796H93.7383C94.7454 25.8085 95.5092 26.1538 95.1314 27.4767L94.3454 30.2269C93.9598 31.5195 93.093 31.9247 92.0348 31.9655H69.0361L66.1727 41.9992L96.0356 41.9981C99.7096 41.9234 104.247 38.4317 105.307 34.9182L107.435 27.4647ZM56.474 11.9117L47.8772 42H60.4311L72.4328 0.00128174H50.3897L36.6486 22.9864L38.4367 0.00128174H18.1863L0 41.9996L12.4474 42L26.0821 11.9117L24.0285 42H36.6896L56.474 11.9117Z" fill="#FF3333"></path></svg>