<svg xmlns="http://www.w3.org/2000/svg" width="14" height="15" fill="none" class="mr-2 cursor-pointer"><path fill="#1C58EE" d="M13.125 9.938c0 .41-.191.738-.438 1.011v2.215c.247.164.438.438.438.738 0 .465-.41.848-.875.848H3.5a2.591 2.591 0 0 1-2.625-2.625v-8.75A2.608 2.608 0 0 1 3.5.75h8.313c.71 0 1.312.602 1.312 1.313v7.874ZM8.012 6.136l-1.367.574c-.055.027-.082.082-.082.164 0 .055.027.137.082.164l1.367.547.574 1.367c.027.055.082.11.164.11.055 0 .11-.055.137-.11l.574-1.367 1.367-.547c.055-.027.11-.11.11-.164 0-.055-.055-.11-.11-.137l-1.367-.574-.574-1.367c-.028-.055-.082-.11-.137-.11-.082.028-.137.055-.164.11l-.574 1.34ZM4.43 3.73c-.055 0-.055.055-.055.083 0 .054 0 .082.055.109l.793.328.355.82c.027.028 0 .055.082.055.055 0 .082-.027.11-.055l.328-.82.82-.328c.055-.027.082-.055.082-.11 0-.027-.027-.054-.082-.082l-.82-.355-.356-.793c0-.055-.082-.082-.082-.082-.027 0-.055.027-.11.082l-.327.793-.793.355ZM11.375 13v-1.75H3.5a.881.881 0 0 0-.875.875c0 .492.383.875.875.875h7.875Z"/></svg>