<svg xmlns="http://www.w3.org/2000/svg" width="10" height="15" fill="none" class="mr-2 cursor-pointer"><path fill="#1C58EE" d="M2.813 13.191v-1.066h4.374l-.027 1.066c0 .137-.055.356-.137.465l-.464.711c-.137.219-.465.383-.739.383H4.152c-.273 0-.601-.164-.738-.383l-.465-.71c-.11-.137-.136-.302-.136-.466ZM4.973.777C7.625.75 9.813 2.91 9.813 5.562c0 1.231-.465 2.325-1.204 3.145-.464.52-1.148 1.613-1.421 2.516v.027H2.785v-.027c-.273-.903-.957-1.996-1.422-2.516A4.756 4.756 0 0 1 .188 5.562C.188 3.02 2.183.777 4.973.777ZM5 3.402a.45.45 0 0 0 .438-.437A.47.47 0 0 0 5 2.527c-1.695 0-3.063 1.368-3.063 3.035 0 .247.192.438.438.438a.45.45 0 0 0 .438-.438c0-1.203.957-2.16 2.187-2.16Z"/></svg>