<svg xmlns="http://www.w3.org/2000/svg" width="16" height="15" fill="none" class="mr-2 cursor-pointer"><path fill="#1C58EE" d="M10.05 6.902c-.218 0-.437.028-.655.082l-2.27-2.27c0-.218 0-.437.027-.655A3.92 3.92 0 0 1 10.105.887a3.9 3.9 0 0 1 1.86-.028c.3.082.41.465.191.684L10.27 3.43v2.023h2.05l1.887-1.86c.219-.218.602-.136.684.165.136.574.136 1.23-.028 1.887-.273 1.175-1.12 2.132-2.215 2.625l-.546-.52a2.85 2.85 0 0 0-2.051-.848ZM11.5 8.38l3.2 3.144c.382.41.382 1.067 0 1.45l-1.45 1.449c-.41.383-1.04.383-1.45 0l-3.198-3.2c-.63-.628-.739-1.585-.383-2.35l-2.899-2.9H3.625L1 2.5 2.75.75l3.473 2.625V5.07l2.925 2.926a2.098 2.098 0 0 1 2.352.383Zm-4.293.766a3 3 0 0 0 .191 1.832L4.145 14.23c-.356.356-.848.52-1.313.52-.465 0-.957-.164-1.312-.52a1.882 1.882 0 0 1 0-2.625l4.074-4.074 1.613 1.614ZM2.75 13.656A.648.648 0 0 0 3.406 13c0-.355-.3-.656-.656-.656-.383 0-.656.3-.656.656 0 .383.273.656.656.656Z"/></svg>