<svg xmlns="http://www.w3.org/2000/svg" width="14" height="15" fill="none" class="newProductsText cursor-pointer"><path fill="#1C58EE" d="M8.941 3.102 10.5 2.5l.574-1.531c.028-.137.164-.219.301-.219.11 0 .246.082.273.219L12.25 2.5l1.531.602c.137.027.219.164.219.273 0 .137-.082.273-.219.3l-1.531.575-.602 1.559c-.027.109-.164.191-.273.191-.137 0-.273-.082-.3-.191L10.5 4.25l-1.559-.574c-.136-.028-.191-.164-.191-.301 0-.11.055-.246.191-.273ZM7.027 5.89l3.118 1.421a.479.479 0 0 1 .273.41c0 .165-.11.329-.273.41L7.027 9.556l-1.422 3.117a.479.479 0 0 1-.41.273.411.411 0 0 1-.383-.273L3.364 9.555.246 8.133A.451.451 0 0 1 0 7.723c0-.164.082-.328.246-.41L3.363 5.89l1.45-3.118a.411.411 0 0 1 .382-.273c.164 0 .328.11.41.273l1.422 3.118Zm4.047 3.828c.028-.137.164-.219.301-.219.11 0 .246.082.273.219l.602 1.531 1.531.602c.137.027.219.164.219.273 0 .137-.082.273-.219.3L12.25 13l-.602 1.559c-.027.109-.164.191-.273.191-.137 0-.273-.082-.3-.191L10.5 13l-1.559-.574c-.136-.028-.191-.164-.191-.301 0-.11.055-.246.191-.273l1.559-.602.574-1.531Z"/></svg>