<svg xmlns="http://www.w3.org/2000/svg" width="15" height="15" fill="none" class="mr-2 cursor-pointer"><path fill="#1C58EE" d="M13.223.777c.984 0 1.75.766 1.75 1.723v7.848c0 .93-.793 1.722-1.75 1.722H9.285l-3.418 2.543c-.219.164-.52.028-.52-.246V12.07H2.724c-.985 0-1.75-.765-1.75-1.722V2.5c0-.957.765-1.723 1.75-1.723h10.5ZM7.535 7.094v-1.75c0-.82-.683-1.477-1.531-1.477-.848 0-1.531.684-1.531 1.504s.683 1.504 1.53 1.504h.247v.219c0 .383-.3.656-.656.656-.383 0-.657.3-.657.656 0 .383.274.656.657.656 1.039 0 1.941-.874 1.941-1.968Zm3.938 0V5.37c0-.82-.684-1.504-1.532-1.504-.82 0-1.53.684-1.53 1.504s.71 1.531 1.53 1.531c.082 0 .164-.027.246-.027v.219c0 .383-.3.656-.656.656-.383 0-.656.3-.656.656 0 .383.273.656.629.656a1.978 1.978 0 0 0 1.969-1.968Z"/></svg>